# xmcd
#
# Track frame offsets:
#	150
#	13322
#	33962
#	53010
#	67854
#	83402
#	97245
#	114550
#	128398
#	145268
#	162869
#	176051
#	195992
#	212896
#	228419
#
# Disc length: 3302 seconds
#
# Revision: 1
# Processed by: cddbd v1.5.2PL0 Copyright (c) Steve Scherf et al.
# Submitted via: audiograbber 1.83.01
#
DISCID=c10ce40f
DTITLE=Settin'  Hearts - alive and kickin'
DYEAR=1900
DGENRE=Country
TTITLE0=Summerfly
TTITLE1=Dreams
TTITLE2=A FAce In The Crowd
TTITLE3=Face On The Cuttingroom Floor
TTITLE4=Wouldn´t mind the Rain
TTITLE5=Tennessee Stud
TTITLE6=Only When I Love
TTITLE7=You Turn Me On (I´m A Radio)
TTITLE8=She Took Off My Romeo
TTITLE9=Blue Chalk
TTITLE10=I´n On Fire
TTITLE11=Leather And Lace
TTITLE12=The L and N
TTITLE13=Drive South
TTITLE14=Cry Love
EXTD=
EXTT0=
EXTT1=
EXTT2=
EXTT3=
EXTT4=
EXTT5=
EXTT6=
EXTT7=
EXTT8=
EXTT9=
EXTT10=
EXTT11=
EXTT12=
EXTT13=
EXTT14=
PLAYORDER=
